<svg xmlns="http://www.w3.org/2000/svg" width="44" height="49" viewBox="0 0 44 49" fill="none">
<path d="M22 24.5C28.9437 24.5 34.5714 19.0162 34.5714 12.25C34.5714 5.48379 28.9437 0 22 0C15.0562 0 9.42857 5.48379 9.42857 12.25C9.42857 19.0162 15.0562 24.5 22 24.5ZM30.8 27.5625H29.1598C26.9795 28.5387 24.5536 29.0938 22 29.0938C19.4464 29.0938 17.0304 28.5387 14.8402 27.5625H13.2C5.9125 27.5625 0 33.3238 0 40.425V44.4062C0 46.9424 2.11161 49 4.71429 49H39.2857C41.8884 49 44 46.9424 44 44.4062V40.425C44 33.3238 38.0875 27.5625 30.8 27.5625Z" fill="url(#paint0_linear_10_31)"/>
<defs>
  <linearGradient id="paint0_linear_10_31" x1="22" y1="0" x2="22" y2="49" gradientUnits="userSpaceOnUse">
    <stop stop-color="#FFDD55"/>
    <stop offset="1" stop-color="#F8DAC9"/>
  </linearGradient>
</defs>
</svg>