<svg width="34" height="37" viewBox="0 0 34 37" fill="none" xmlns="http://www.w3.org/2000/svg">
<path d="M17 18.5C22.3656 18.5 26.7143 14.3592 26.7143 9.25C26.7143 4.14082 22.3656 0 17 0C11.6344 0 7.28571 4.14082 7.28571 9.25C7.28571 14.3592 11.6344 18.5 17 18.5ZM23.8 20.8125H22.5326C20.8478 21.5496 18.9732 21.9688 17 21.9688C15.0268 21.9688 13.1598 21.5496 11.4674 20.8125H10.2C4.56875 20.8125 0 25.1629 0 30.525V33.5312C0 35.4463 1.6317 37 3.64286 37H30.3571C32.3683 37 34 35.4463 34 33.5312V30.525C34 25.1629 29.4313 20.8125 23.8 20.8125Z" fill="url(#paint0_linear_69_475)"/>
<defs>
<linearGradient id="paint0_linear_69_475" x1="17" y1="0" x2="17" y2="37" gradientUnits="userSpaceOnUse">
<stop stop-color="#92F1E0"/>
<stop offset="1" stop-color="#DBDBDB"/>
</linearGradient>
</defs>
</svg>
